# xmcd CD database file
#
# Track frame offsets:
#	150
#	27680
#	52798
#	78624
#	103562
#	131966
#	152251
#	174999
#	235353
#	255270
#	276772
#	305148
#
# Disc length: 4364 seconds
#
# Revision: 0
# Processed by: cddbd v1.5.1PL2 Copyright (c) Steve Scherf et al.
# Submitted via: CDex 1.51
#
DISCID=9a110a0c
DTITLE=Fourplay - Mix
DYEAR=2005
DGENRE=Jazz
TTITLE0=After the dance
TTITLE1=Bali run
TTITLE2=Still the one
TTITLE3=4play and pleasure
TTITLE4=Anytime of day
TTITLE5=Love's like that
TTITLE6=The closer I get to you
TTITLE7=Westchested lady
TTITLE8=Jazz to the world
TTITLE9=Midnight stroll
TTITLE10=Moonjogger
TTITLE11=Take 6 - Higher ground
EXTD=YEAR: 2005
EXTT0=
EXTT1=
EXTT2=
EXTT3=
EXTT4=
EXTT5=
EXTT6=
EXTT7=
EXTT8=
EXTT9=
EXTT10=
EXTT11=
PLAYORDER=
